<?xml version="1.0" encoding="UTF-8"?>
<svg width="24px" height="24px" viewBox="0 0 24 24" version="1.1" xmlns="http://www.w3.org/2000/svg" xmlns:xlink="http://www.w3.org/1999/xlink">
    <!-- Generator: Sketch 52.2 (67145) - http://www.bohemiancoding.com/sketch -->
    <title>GP</title>
    <desc>Created with Sketch.</desc>
    <g id="GP" stroke="none" stroke-width="1" fill="none" fill-rule="evenodd">
        <g id="Group" fill="#FFFFFF">
            <path d="M18.0253852,16.01251 L14.7363227,12.5178979 L18.0253852,9.02328583 C19.2733426,9.91962979 20.736617,10.7208485 22.0253852,11.020207 C24.44108,12.7492376 21.9435506,13.6397051 22.0253852,14.0155888 C21.9435506,13.6397051 20.2312978,14.6136368 18.0253852,16.01251 Z M4.02538516,2.03406168 C7.36659528,3.37062641 12.1273385,5.72176541 16.4331,8.37267759 L13.9768012,11.4538646 L2.02538516,1.03560109 C2.42199539,0.938587908 3.08837875,0.971626438 4.02538516,2.03406168 Z M1.02538516,23.0017341 L1.02538516,2.03406168 C1.03614356,2.50000484 0.973942078,1.59227735 1.02538516,1.03560109 L13.0253852,12.0186676 L1.02538516,24.0001947 C0.963227492,23.7299978 1.03614356,23.1751824 1.02538516,23.0017341 Z M17.0253852,17.0109706 C12.5619007,19.1808829 6.06431151,22.9248502 3.02538516,24.9986553 C2.60175047,24.9200921 2.26764451,25.011972 2.02538516,24.9986553 L14.0253852,13.0171282 L17.0253852,17.0109706 Z" id="Combined-Shape"></path>
        </g>
        <rect id="Rectangle" x="0" y="0" width="24" height="24"></rect>
    </g>
</svg>